<?xml version="1.0" standalone="no"?><!DOCTYPE svg PUBLIC "-//W3C//DTD SVG 1.1//EN" "http://www.w3.org/Graphics/SVG/1.1/DTD/svg11.dtd"><svg t="1599191126778" class="icon" viewBox="0 0 1024 1024" version="1.1" xmlns="http://www.w3.org/2000/svg" p-id="2728" data-spm-anchor-id="a313x.7781069.0.i0" xmlns:xlink="http://www.w3.org/1999/xlink" width="120" height="120"><defs><style type="text/css"></style></defs><path d="M768 512c-25.6 0-42.666667 17.066667-42.666667 42.666667v256c0 25.6-17.066667 42.666667-42.666666 42.666666H213.333333c-25.6 0-42.666667-17.066667-42.666666-42.666666V341.333333c0-25.6 17.066667-42.666667 42.666666-42.666666h256c25.6 0 42.666667-17.066667 42.666667-42.666667s-17.066667-42.666667-42.666667-42.666667H213.333333C140.8 213.333333 85.333333 268.8 85.333333 341.333333v469.333334c0 72.533333 55.466667 128 128 128h469.333334c72.533333 0 128-55.466667 128-128v-256c0-25.6-17.066667-42.666667-42.666667-42.666667z" p-id="2729" data-spm-anchor-id="a313x.7781069.0.i2" class="" fill="#ffffff"></path><path d="M934.4 110.933333c-4.266667-8.533333-12.8-17.066667-21.333333-21.333333-4.266667-4.266667-12.8-4.266667-17.066667-4.266667h-256c-25.6 0-42.666667 17.066667-42.666667 42.666667s17.066667 42.666667 42.666667 42.666667h153.6l-396.8 396.8c-17.066667 17.066667-17.066667 42.666667 0 59.733333 8.533333 8.533333 17.066667 12.8 29.866667 12.8s21.333333-4.266667 29.866666-12.8L853.333333 230.4V384c0 25.6 17.066667 42.666667 42.666667 42.666667s42.666667-17.066667 42.666667-42.666667V128c0-4.266667 0-12.8-4.266667-17.066667z" p-id="2730" data-spm-anchor-id="a313x.7781069.0.i1" class="" fill="#ffffff"></path></svg>