<svg width="24" height="24" viewBox="0 0 24 24" fill="none" xmlns="http://www.w3.org/2000/svg">
<path d="M9.33879 12.3102H9.28884L7.95676 19.1818H7.09091L8.6228 11.5806L7.09091 4.45454H8.12327L9.27219 10.6475H9.32214L10.5377 4.45454H11.4035L9.97153 11.5806L11.5534 19.1818H10.521L9.33879 12.3102Z" fill="black"/>
<path d="M14.2104 14.2839V17.4934C14.2104 18.0785 14.56 18.3627 15.0762 18.3627C15.5591 18.3627 15.9088 18.0785 15.9088 17.4934V15.0027C15.9088 14.217 15.8755 13.6654 15.5591 13.1471L13.8607 10.3388L13.5443 9.78712C13.2613 9.26891 13.178 8.83428 13.178 8.13218V6.07605C13.178 5.17336 13.7774 4.45454 15.0429 4.45454C16.3084 4.45454 16.8912 5.05634 16.8912 6.1262V8.63368H15.8588V6.29336C15.8588 5.70828 15.659 5.30709 15.0596 5.30709C14.4268 5.30709 14.227 5.70828 14.227 6.29336V8.26592C14.227 8.7507 14.3103 9.21876 14.6266 9.70354L15.1428 10.5728L16.4915 12.7125C16.8412 13.2976 16.9578 13.8325 16.9578 14.5848V17.4767C16.9578 18.5132 16.2584 19.1818 15.0263 19.1818C13.9273 19.1818 13.178 18.6302 13.178 17.6439V14.2337H14.2104V14.2839Z" fill="black"/>
<path d="M2.18182 5.27273V2H5.45455" stroke="black" stroke-width="1.5" stroke-linecap="round" stroke-linejoin="round"/>
<path d="M18.5454 2L21.8182 2L21.8182 5.27273" stroke="black" stroke-width="1.5" stroke-linecap="round" stroke-linejoin="round"/>
<path d="M21.8182 18.3636L21.8182 21.6364L18.5454 21.6364" stroke="black" stroke-width="1.5" stroke-linecap="round" stroke-linejoin="round"/>
<path d="M5.45455 21.6364L2.18182 21.6364L2.18182 18.3636" stroke="black" stroke-width="1.5" stroke-linecap="round" stroke-linejoin="round"/>
<line x1="18.2046" y1="11.8864" x2="23.25" y2="11.8864" stroke="black" stroke-width="1.5" stroke-linecap="round"/>
<line x1="0.75" y1="11.8864" x2="5.79545" y2="11.8864" stroke="black" stroke-width="1.5" stroke-linecap="round"/>
</svg>
